<?xml version="1.0" encoding="UTF-8"?>
<svg xmlns="http://www.w3.org/2000/svg" width="390" height="436" viewBox="0 0 390 436" role="img" aria-labelledby="title desc">
  <title id="title">Tik Tak Run logo</title>
  <desc id="desc">Vector trace of the supplied black Tik Tak Run monster logo, with transparent background.</desc>
  <path d="M 219 59 L 218.5 59.25 L 211 59.25 L 210.25 60 L 210.25 64 L 210 64.25 L 209.75 69 L 209.5 69.25 L 209.5 69.75 L 209 70.25 L 209 71 L 208.75 71.25 L 208.75 72 L 208.5 72.25 L 208.5 72.75 L 207.75 74.5 L 207.75 75.25 L 207.25 75.75 L 206.75 76.75 L 206.75 77.25 L 206 78.25 L 205.75 79 L 203.25 82.25 L 203.25 82.5 L 199.5 86 L 199 86 L 198 86.5 L 195.25 86.5 L 194.25 86 L 193.5 86 L 192.5 85.5 L 192 85 L 191 84.5 L 190.5 84.5 L 189.25 83.5 L 188.75 83.5 L 185.5 80.75 L 185.25 80.75 L 185 80.25 L 183 78.25 L 183 78 L 182.75 78 L 182 77.25 L 181.75 76.5 L 180.75 75.5 L 179.75 73.75 L 179 73 L 179 72.5 L 178.5 72 L 178 70.75 L 177 69.5 L 177 69.25 L 178 68.5 L 178.75 68.5 L 180.25 67.75 L 181.25 67.75 L 182.25 67 L 183 67 L 184.75 66 L 185.25 66 L 186.75 65.25 L 187.25 65.25 L 189.25 64.25 L 190.5 63.25 L 191.5 63 L 192.25 62.25 L 193.5 61.75 L 194.25 61 L 194.75 61 L 195.5 60.5 L 195.5 59.5 L 194.5 59 L 194 59.25 L 147 59.25 L 146.5 59.75 L 146.5 60.5 L 147.75 61 L 148.5 61.75 L 149.25 62 L 150 62.75 L 150.75 63 L 151.25 63.5 L 154.25 65 L 155.5 65.25 L 156.5 66 L 157.25 66 L 158.75 67 L 159.25 67 L 159.5 67.25 L 160 67.25 L 160.25 67.5 L 160.75 67.5 L 162.5 68.25 L 163.5 68.25 L 164.5 68.75 L 165.25 69.5 L 164.25 70.75 L 163.5 72.25 L 162.5 73.25 L 162 74.5 L 160 76.75 L 159.75 77.5 L 155.75 81.5 L 154.75 82 L 153 83.5 L 151.25 84.25 L 150.75 84.75 L 150.25 84.75 L 148.75 85.75 L 148 85.75 L 147.75 86 L 147 86 L 146.75 86.25 L 144.25 86.25 L 144 86 L 143.25 86 L 143 85.75 L 142 85.5 L 139 82.25 L 139 82 L 138.25 81.25 L 138 80.5 L 137.25 79.75 L 136.75 78.5 L 136 77.75 L 136 77.25 L 134 73.5 L 134 72.75 L 133.75 72.5 L 133.75 72 L 133 70.25 L 133 68.5 L 132.75 68.25 L 132.75 67.5 L 132.25 66.5 L 132 64 L 131.75 63.75 L 131.75 63 L 131 61.25 L 131 60 L 130.5 59.25 L 110.5 59.25 L 110 59.75 L 109.75 63 L 109 64.5 L 108.75 66.75 L 108 68.25 L 108 69.25 L 107.75 69.5 L 107.75 70 L 106.75 71.25 L 105.75 73.5 L 105.25 74 L 104.75 75 L 103.25 76.5 L 102.75 77.5 L 102.25 77.75 L 98.75 81 L 98.5 81 L 97.75 81.75 L 97 82 L 96.25 82.75 L 95.5 83 L 95 83.5 L 93 84.5 L 92.5 84.5 L 90.5 85.75 L 89 86 L 88.75 86.25 L 87.25 86.5 L 87 86.75 L 81.5 87 L 81.25 86.75 L 78.75 86.75 L 78.5 86.5 L 77.5 86.5 L 77.25 86.25 L 76.5 86.25 L 76.25 86 L 74.75 85.75 L 73.5 84.75 L 72.5 84.5 L 71.5 83.75 L 70.75 83.5 L 69 81.75 L 69 81.5 L 68 80.25 L 67.75 79 L 67 77.5 L 67 72.5 L 67.25 72.25 L 67.5 70.25 L 67.75 70 L 68 68.75 L 68.5 68 L 68.5 67.5 L 69 66.5 L 69.75 65.75 L 70 65 L 72 62.75 L 72 62.5 L 74 60.75 L 74.25 59.75 L 73.75 59.25 L 42 59.25 L 41.75 59.5 L 41.25 59.5 L 41 59.25 L 39 59.25 L 38.5 60 L 38.5 60.5 L 39 60.75 L 42.25 64 L 42.75 64.25 L 42.75 64.5 L 45 66.75 L 45 67 L 46 68 L 46 68.25 L 48 70.25 L 48.25 71.25 L 49 72.5 L 49 76.25 L 48.75 76.5 L 48.75 77.75 L 47.75 79.5 L 47.75 80 L 44.75 83.25 L 44.5 83.25 L 43.5 84.25 L 41.75 85 L 40.75 85.75 L 40.25 85.75 L 40 86 L 39 86 L 38 86.5 L 36.25 86.5 L 36 86.75 L 33.25 86.75 L 33 86.5 L 32 86.5 L 31 86 L 29.5 85.75 L 28.5 85 L 27 84.5 L 26.75 84 L 24.75 83 L 23.5 81.75 L 22.5 81.25 L 19.75 78.75 L 18.5 78 L 14.5 74 L 13.75 72.5 L 13.25 72 L 13 72 L 12.5 72.75 L 12.5 74.25 L 12.25 74.5 L 12.5 74.75 L 12.5 77.25 L 12.25 77.5 L 12.5 77.75 L 12.5 79.25 L 12.25 79.5 L 12.25 86.5 L 12.5 86.75 L 12.5 87.5 L 12.75 87.75 L 13 88.75 L 14 89.75 L 14.75 90 L 16 91.25 L 16.25 92.25 L 18 93.75 L 18.75 93.75 L 19 94 L 19.75 94 L 20 94.25 L 22 94.25 L 22.75 94.75 L 23.5 94.75 L 24.5 95.25 L 26.25 96.75 L 26.5 96.75 L 27.25 97.75 L 27.75 97.75 L 28.75 98.75 L 29 98.75 L 31 100.75 L 31.75 100.75 L 32 100.5 L 32 99.75 L 32.75 98.25 L 32.75 97.75 L 33.25 97.5 L 33.75 98 L 34 99.25 L 35.5 100.75 L 36.5 101 L 37.5 101.75 L 38.25 101.75 L 38.5 102 L 40 102 L 40.25 102.25 L 41.25 102.25 L 41.5 102.5 L 42.25 102.5 L 42.5 102.75 L 43 102.75 L 44.75 102 L 45 101.5 L 45 100.5 L 45.25 100.25 L 45.25 99.25 L 45.5 99 L 45.5 98.5 L 46 98 L 46.25 98 L 46.75 98.75 L 46.75 100.25 L 47 100.5 L 47 101 L 48 102.25 L 48 102.5 L 49 102.75 L 49.25 103 L 55.75 103 L 56.25 102.75 L 56.75 102 L 56.75 99.75 L 57 99.5 L 57 98 L 57.25 97.75 L 57.25 95.5 L 57.5 95.25 L 58 95.25 L 58.75 96.25 L 58.75 97.25 L 59 97.5 L 59 98.25 L 59.75 100 L 59.75 101 L 60 101.25 L 60.25 102.25 L 61 103 L 66.25 103 L 66.5 102.75 L 70.5 102.75 L 70.75 102.5 L 71.5 102.5 L 72 101.75 L 72.25 98.5 L 72.5 98.25 L 72.5 97 L 72.75 96.75 L 72.75 95 L 73.25 94.5 L 73.75 95.25 L 74 96.5 L 74.75 97.75 L 75 99.75 L 76 101 L 78.5 101 L 78.75 100.75 L 82 100.5 L 82.25 100.25 L 83.5 100.25 L 83.75 100 L 85.5 100 L 86.5 99.25 L 87.25 99 L 87.75 98.5 L 87.75 98.25 L 88.75 97.25 L 89 96.75 L 89 96 L 89.5 95.5 L 90.25 95.5 L 90.5 95.75 L 95 95.75 L 95.75 95.25 L 97.5 94.75 L 100 92.25 L 100.25 91.5 L 101.25 90.5 L 101.75 90.5 L 102 90.75 L 103.25 90.75 L 103.5 91 L 106.25 91 L 107.75 90.25 L 109 90 L 110.5 89.25 L 111.5 88 L 111.75 88 L 112.75 87 L 113 87 L 114 86 L 114.25 86 L 115.5 84.75 L 116.25 84.5 L 118.5 82.75 L 119.25 82.5 L 120 81.75 L 120.75 81.75 L 121 82 L 120.75 83 L 119 85 L 118.75 85.75 L 118 86.5 L 118 86.75 L 116.75 88 L 116 89.5 L 113.25 92.5 L 112.5 92.5 L 112.25 92.25 L 110.25 92.25 L 109.25 92.75 L 102.75 99.75 L 102.25 99.75 L 102 99.5 L 100.75 97 L 99.75 97 L 98.75 98 L 98 98.25 L 97.75 98.75 L 96 100.5 L 95.75 100.5 L 91.25 104.75 L 90.5 104.75 L 90.25 104.25 L 88.5 102.75 L 85.25 102.75 L 85 103 L 84.5 103 L 83.25 103.75 L 82.25 104 L 81.75 104.5 L 80.5 105 L 80 105.5 L 79.25 105.75 L 78.5 106.5 L 78.25 106.5 L 77.5 107.25 L 77.5 107.5 L 76 108.75 L 75.5 109.75 L 74.5 110.75 L 74 110.25 L 73 108.25 L 72 107.25 L 71 107 L 70.75 106.75 L 67.5 106.75 L 67.25 107 L 66 107 L 64.25 107.75 L 62.5 107.75 L 62.25 108 L 61.5 108 L 60.25 109 L 60.25 109.5 L 60 109.75 L 60 113 L 60.25 113.25 L 60.25 115.5 L 59.75 116 L 59.5 116 L 59 115.5 L 59 114.75 L 58 112.75 L 57.75 111.25 L 57.25 110.5 L 57 109.5 L 55.5 108 L 55 107.75 L 54.25 107.75 L 53.25 107.25 L 51.75 107.25 L 51.5 107.5 L 50 107.5 L 49.75 107.75 L 48.25 108 L 47.75 108.75 L 47.75 110 L 47 110.75 L 46 110 L 44.75 109.5 L 44 108.75 L 41.75 107.75 L 41 107 L 38 105.5 L 37.5 105 L 37 105 L 35.75 104.25 L 35.25 104.25 L 35 104.5 L 35 105.25 L 35.25 105.5 L 35.25 109.5 L 35.5 109.75 L 35.5 110.5 L 35 111 L 34.5 111 L 33.75 110.25 L 33.75 110 L 32.75 108.75 L 32.5 108 L 31.25 106.75 L 29.25 103.5 L 28 102.25 L 27.75 101.5 L 27.25 101 L 26.75 100 L 26 100 L 25 101.75 L 25 102.25 L 24.25 104 L 24.25 104.75 L 23.5 105.5 L 23 105 L 23 104.5 L 22.75 104.25 L 22.75 103 L 21.75 100.75 L 19.25 97.75 L 18.75 97.75 L 17 96.75 L 13.25 96.75 L 12.5 97.25 L 12.5 169.75 L 13 170.5 L 13.5 170.75 L 14 170.5 L 21.5 170.5 L 22.25 169 L 22.5 165.75 L 23.25 165 L 27.5 165 L 27.75 165.25 L 31.75 165.25 L 32.25 165.75 L 32 166.5 L 31.5 167 L 30.75 167.25 L 30 168.25 L 28.75 169 L 28.25 170 L 28.5 170.5 L 29 170.75 L 30.75 170.75 L 31 170.5 L 31.5 170.75 L 37.25 170.75 L 37.5 170.5 L 38 170.5 L 38.5 170 L 38.5 169.5 L 38.75 169.25 L 38.75 167.25 L 39.25 166.75 L 45.75 167 L 46 167.25 L 48.75 167.25 L 49 167.5 L 50.5 167.25 L 51 167.75 L 51 168.5 L 50 169.5 L 50 170.5 L 50.5 171 L 51.5 171 L 51.75 170.75 L 56.75 170.75 L 57.25 170.25 L 58 168.25 L 58.75 167.75 L 59 168 L 59.75 168 L 60 167.75 L 64 167.5 L 64.25 167.25 L 66.25 167.25 L 66.5 167 L 70.5 167 L 71 167.5 L 70.75 168.25 L 70 169 L 70 170.25 L 70.5 170.75 L 71.75 170.75 L 72 170.5 L 72.75 170.5 L 73 170.75 L 76.5 170.75 L 77 170.25 L 77 168.25 L 76.75 168 L 76.75 167.5 L 77.5 166.75 L 79 166.5 L 79.25 166.25 L 80 166.25 L 80.25 166 L 83.5 165.75 L 83.75 165.5 L 84.75 165.5 L 85 165.25 L 86.25 165.25 L 86.5 165 L 88.5 165 L 89 164.75 L 89.5 165.25 L 89.5 166 L 88.75 167 L 88.75 167.75 L 88 168.5 L 88 169.25 L 87.75 169.5 L 87.75 170.5 L 88 170.75 L 89 170.75 L 90 170 L 90.75 170 L 91.75 169.5 L 93 169.5 L 94 170 L 94.75 170 L 96 170.75 L 96.75 170.75 L 97.25 170.25 L 97.25 169.75 L 97 169.5 L 96.75 166.25 L 96.25 165.5 L 96.25 164.75 L 96 164.5 L 96 164 L 96.5 163.25 L 97 163 L 97.75 163 L 99.5 162 L 100.25 162 L 101.25 161.5 L 101.75 161 L 103 160.75 L 105 159.75 L 105.75 159.75 L 107 159 L 109.5 159 L 109.75 159.25 L 109.75 160 L 108.75 161 L 108.75 161.5 L 107 163.75 L 106.75 164.5 L 106 165.25 L 105.25 167 L 104 168.5 L 103.75 169.25 L 102.75 170.5 L 102.75 171.5 L 104.5 173 L 104.75 173 L 106.5 174.75 L 106.75 175.5 L 107.5 176.25 L 108 177.25 L 108.25 178.75 L 108.5 179 L 108.5 180 L 108.75 180.25 L 108.75 182 L 109 182.25 L 109 185 L 109.25 185.25 L 109.25 191 L 109.5 191.25 L 109.25 197.5 L 110 198.5 L 110.5 198.5 L 111.5 198 L 113.5 197.75 L 114.5 197.25 L 115.5 197.25 L 116 197.75 L 116 198.5 L 115.75 198.75 L 115.75 202 L 115.5 202.25 L 115.5 203 L 115.25 203.25 L 115.25 204 L 115 204.25 L 114.75 208 L 114.5 208.25 L 114.5 209.75 L 114.25 210 L 114.25 211.25 L 114 211.5 L 114 213.75 L 113.75 214 L 113.75 216.25 L 113.5 216.5 L 113.5 218 L 113.25 218.25 L 112.75 220.25 L 109.75 223.75 L 108.75 225.5 L 108.75 298.75 L 109 299 L 110.5 299 L 110.75 299.25 L 110.75 300.25 L 111 300.5 L 111.25 302 L 111.5 302.5 L 112.25 303 L 115.25 301.5 L 115.5 301.5 L 116.25 302.25 L 116.75 304 L 118 306.25 L 118 307 L 118.75 308.25 L 119 311.5 L 118.75 312 L 117 313.5 L 109.25 313.5 L 108.75 314 L 108.75 314.5 L 108.5 314.75 L 108.5 315.25 L 108.75 315.5 L 108.75 318 L 109.75 320 L 109.75 320.5 L 110.25 321 L 110.75 322 L 110.75 323 L 111.25 324 L 111 330.75 L 111.25 331 L 111.25 332.25 L 111.75 333.25 L 111.75 334 L 112.5 335.5 L 112.5 336 L 112.75 336.25 L 112.75 337.25 L 113 337.5 L 113 338.5 L 112.5 339 L 109.25 339 L 108.75 339.75 L 108.75 353.25 L 109 353.5 L 109 354 L 109.75 354.75 L 110.5 355 L 111.25 355.75 L 112.5 356.25 L 113 356.75 L 114 357.25 L 114.5 357.25 L 115 357.75 L 116.25 358.25 L 117 359 L 117.75 359.25 L 118.5 360 L 119.25 360.25 L 121.25 362.25 L 121.75 363.25 L 121.75 366.25 L 119.5 369.75 L 117.25 372 L 116.5 372.25 L 114.75 373.5 L 113.5 373.75 L 111.75 374.75 L 110.25 375 L 109 376.5 L 109 377 L 108.75 377.25 L 108.75 394 L 109 394.5 L 109.5 394.75 L 111 394 L 111.5 393.5 L 112.25 393.25 L 112.75 393.75 L 113 395.25 L 113.5 396 L 113.5 397.25 L 113.75 397.5 L 113.75 400.5 L 113.5 400.75 L 113.5 401.5 L 113 402.5 L 112 403.5 L 111.75 404.25 L 109.75 406.25 L 109.75 407.25 L 110.75 408.25 L 110.75 408.5 L 111.75 409.5 L 111.75 409.75 L 113.25 411 L 113.75 411.25 L 116.25 411.25 L 116.5 411.5 L 118.25 411.75 L 120.5 413.5 L 121.75 413 L 123.75 411 L 124 411 L 124.25 410.5 L 124.25 409.75 L 123 408.25 L 123 407.75 L 122.25 406.75 L 122.25 405.75 L 122 405.5 L 122 405 L 122.25 404.75 L 122.5 397.5 L 122.75 397.25 L 122.75 395.75 L 123.25 395 L 123.75 395 L 126.25 397.5 L 127 399 L 127.75 399.75 L 128.25 401 L 128.75 401.5 L 129 402.75 L 129.75 404.25 L 130.25 404.75 L 130.75 404.5 L 130.75 404 L 131 403.75 L 131 402.75 L 132 401 L 132 400.25 L 133 398.5 L 133 398 L 133.75 397 L 134.75 397.25 L 136.5 398.75 L 137.25 398.75 L 137.75 398.5 L 140 396 L 140.25 396 L 142.25 394 L 142.5 394 L 144 392.25 L 144.25 392.25 L 147.5 389 L 147.75 389 L 155 381.75 L 155.25 381.75 L 158.75 378.25 L 159 378.25 L 160.75 376.25 L 161 376.25 L 161.75 375.5 L 161.75 374.75 L 161.5 374.5 L 161 374.5 L 160.75 374.75 L 158.75 374.75 L 158.5 375 L 156.75 375 L 156.5 375.25 L 154.75 375.25 L 154.5 375.5 L 149 375.5 L 148.25 375 L 147 375 L 146 374.25 L 145.25 374 L 144 373 L 144 372.75 L 142 370.5 L 141.5 369.5 L 141.5 369 L 141 368.25 L 141 367 L 140.75 366.75 L 140.75 365.75 L 140.5 365.5 L 140.5 364.75 L 140.25 364.5 L 140.25 363.75 L 140 363.5 L 140 361.75 L 139.75 361.5 L 139.75 358 L 140 357.75 L 140 357.25 L 140.75 356.25 L 141 355.5 L 142.25 354.25 L 145.25 352.75 L 148.25 352.75 L 148.5 352.5 L 149.25 352.5 L 150.25 352 L 151.5 352 L 151.75 351.75 L 153.75 351.25 L 154.75 350.75 L 155.25 350.25 L 156.5 349.75 L 157.25 349 L 159.25 348 L 160.25 347 L 163 345.25 L 164.25 344 L 164.5 344 L 165.25 343.25 L 166 343 L 167.5 341.75 L 169.5 340.75 L 170 340.75 L 171.25 340 L 171.75 340 L 173.5 339 L 174.25 339 L 174.5 338.75 L 175.75 338.5 L 176.25 338 L 177.75 338 L 178.25 338.75 L 178 339.25 L 178 342 L 177.75 342.25 L 177.75 345.75 L 177.5 346 L 177.25 348.5 L 177 348.75 L 177 350.75 L 176.75 351 L 176.75 354 L 176.5 354.25 L 176.25 357.75 L 176 358 L 176 359.5 L 176.25 359.75 L 177 359.75 L 177.5 359.5 L 178.25 358.75 L 178.25 358.5 L 179 357.75 L 179.25 357.75 L 188.5 348.5 L 188.75 348.5 L 189 348 L 190 347 L 190.25 347 L 190.25 346.75 L 191 346 L 191.25 346 L 196.25 341 L 196.5 341 L 196.75 340.5 L 199.75 337.5 L 200 337.5 L 200.75 336.75 L 200.75 336.5 L 201.75 335.75 L 202 335.25 L 202 333.5 L 201 331.75 L 201 330.75 L 200.75 330.5 L 200.5 328.75 L 199.75 327 L 199.75 326 L 199.25 325.25 L 198.75 325.25 L 198 325.75 L 197.75 326.25 L 197.75 327.25 L 197 328.25 L 196.75 329.5 L 196 330.5 L 195.25 332.5 L 194.5 333.25 L 194 332.75 L 193.75 331.75 L 193 330.75 L 192.5 328.5 L 191.75 328 L 191 328.5 L 191 329 L 189.75 330.75 L 189.5 331.75 L 188.75 332.5 L 188.5 332.5 L 188 332 L 188 331.25 L 187.75 331 L 187.75 329.75 L 187.25 329 L 187 327 L 186.75 326.75 L 186.75 325.75 L 186.5 325.5 L 186.5 324.75 L 186 324 L 185.25 324 L 185 324.25 L 184.75 325.75 L 184.5 326 L 184.5 326.5 L 183.75 328.25 L 183.75 329.25 L 183.25 329.75 L 183 329.75 L 182.25 329 L 181.75 327.25 L 180.75 325.5 L 180 325.5 L 179 326 L 177.5 325.75 L 175.5 323.5 L 175 322.5 L 173.75 321.25 L 172.75 319.5 L 171.75 318.5 L 171.75 318.25 L 171 317.5 L 170 315.75 L 169 314.75 L 168.75 314 L 168.25 313.5 L 168 313 L 168 310.5 L 168.5 309.5 L 169.5 308.75 L 171 309.5 L 172 310.5 L 172.25 311.25 L 172.75 311.75 L 173 312.75 L 173.75 312.75 L 174.25 312.25 L 174.25 312 L 175 311.25 L 175.25 311.25 L 176 310 L 176.5 310 L 177 310.5 L 177.75 312 L 177.75 313.25 L 178.25 314 L 179.25 314 L 180.25 312.75 L 181 312.5 L 181.5 313 L 181.75 313.75 L 182.75 314.75 L 182.75 315.25 L 183.5 315.75 L 184 315.5 L 185.25 314 L 186.75 313.25 L 187.75 314.5 L 188 316 L 188.75 317.25 L 188.75 318 L 189.25 318.75 L 189.5 318.75 L 190.25 318 L 190.25 317.75 L 191.5 316.5 L 191.75 315.75 L 192.25 315.25 L 192.75 315.25 L 193.25 315.75 L 193.25 316.25 L 194 317.75 L 194 319.25 L 194.25 319.5 L 194.5 321.25 L 195.25 322.25 L 195.5 322.25 L 196 321.75 L 196.25 321 L 197.5 319.25 L 197.5 318.75 L 198 317.75 L 199 316.5 L 199.5 316.5 L 200 317.25 L 200 318 L 200.5 318.5 L 200.75 319.5 L 201.5 320.25 L 202.25 321.75 L 203 321.75 L 203.5 321.25 L 203.75 320.5 L 205.75 318.25 L 206.25 317 L 207 316.25 L 207.5 316.25 L 207.75 316.5 L 208 319.25 L 209 321.5 L 209.75 321.5 L 210 320.75 L 211 319.5 L 211 319 L 211.5 318.5 L 212 317.25 L 212.5 316.75 L 212.75 316.75 L 213.5 317.5 L 214.25 319.25 L 214.5 319.25 L 215 319.75 L 215.5 319.75 L 216 319.25 L 217 317.25 L 218 316.25 L 219.25 313.75 L 219.75 313.25 L 220 311.25 L 220.75 310 L 220.75 308.75 L 221 308.5 L 221 304.5 L 221.25 304.25 L 221.25 303 L 221.5 302.75 L 221.25 302.25 L 220.75 301.75 L 220.25 301.75 L 218.5 301 L 216.25 300.75 L 216 300.5 L 214 300 L 213 299.25 L 212.5 299.25 L 209.5 295.75 L 208.75 294.25 L 208.75 293 L 208.25 292 L 208.25 290 L 208.5 289.75 L 208.5 289 L 208.75 288.75 L 209 287.75 L 211.25 285.25 L 212.25 285 L 212.5 284.75 L 217.5 284.75 L 218.75 287 L 219 288.25 L 219.75 289.75 L 220.25 290.25 L 220.5 290.25 L 221 289.75 L 221 226 L 220.75 225.5 L 220.25 225.5 L 219.75 226.25 L 219.75 227.25 L 219.5 227.5 L 219.25 228.75 L 218.75 229.5 L 218.75 230.25 L 216.5 234.75 L 216.5 235.25 L 215.75 236.5 L 215.75 237 L 215 238 L 214.5 239.25 L 214 239.75 L 213.75 240.75 L 213 242.25 L 212 243.5 L 210 247.5 L 208.75 249 L 206.75 252.25 L 205 254.5 L 204.75 255.5 L 203.25 257 L 202.5 258.25 L 200.75 260.25 L 200.25 261.25 L 199.5 261.75 L 198 260 L 196.75 258 L 195.5 256.75 L 195.25 256.75 L 194.75 257.25 L 194.75 257.75 L 194.25 258.5 L 193.75 260.5 L 193 261.5 L 192.75 262.75 L 192 264.25 L 192 265 L 191.75 265.5 L 191.25 265.75 L 190.75 265.25 L 190.5 263.5 L 190 262.75 L 190 260.75 L 189.75 260.5 L 189.75 259.5 L 189.5 259.25 L 189.5 258.5 L 189.25 258.25 L 189.25 257.25 L 189 256.75 L 188.25 256.75 L 187.75 257.25 L 187.5 258.25 L 186 261 L 186 261.5 L 185.5 262.5 L 185 263 L 182.75 268 L 182.25 268.5 L 182 268.5 L 181.5 268 L 181.5 267.25 L 181.25 267 L 181.25 266.25 L 181 266 L 181 264.75 L 180.5 263.75 L 180.5 262.5 L 179.75 261.5 L 179.25 261.5 L 178.75 262.25 L 178.75 262.75 L 177.75 264.75 L 177 265.5 L 175.75 268.25 L 175.25 268.75 L 174.25 269 L 173.75 268.25 L 173.75 266 L 173.5 265.75 L 173.25 262.25 L 172.75 261.5 L 172.25 261.5 L 171.75 262 L 171.75 262.75 L 171 264 L 170.75 265.25 L 170 266.5 L 169.75 268 L 169.25 269 L 168.75 269.5 L 168.5 269.5 L 168 269 L 168 267.75 L 167.75 267.5 L 167.75 266.75 L 167 265.25 L 166.75 263.75 L 166 262.75 L 165.75 260.75 L 165.5 260.5 L 165.5 259.75 L 165.25 259.25 L 164.25 259.25 L 163.5 260.5 L 163.5 261 L 162.75 262 L 162.5 263.25 L 162 263.75 L 161.75 265 L 159.5 269.25 L 159 268.75 L 159 268.25 L 158 266.75 L 157.75 265 L 157 263.75 L 157 262.75 L 156.5 262 L 156.25 262 L 155.25 263 L 154.5 264.75 L 154 265.25 L 154 265.75 L 153 267.75 L 152.25 268.5 L 151.75 268 L 151.75 267 L 151.5 266.75 L 151.5 266 L 151 265 L 151 263.75 L 150 261.75 L 150 260.25 L 149.75 260 L 149.75 259.25 L 149.5 259 L 149.25 257.75 L 149 257.5 L 148.5 257.5 L 148 258 L 148 258.5 L 147.75 258.75 L 147.75 260 L 147.25 260.5 L 146.75 261.5 L 146 264.5 L 145.5 265 L 145 264.5 L 144 262.5 L 144 261.75 L 143 259.75 L 142.5 259.25 L 142 259.25 L 140.75 260 L 139.75 260 L 139.5 259.75 L 138.75 259.75 L 137.75 259 L 137.5 258.25 L 136 256.75 L 135 255 L 133.75 253.75 L 132.75 252 L 131 250 L 130.75 249.25 L 130 248.5 L 129.25 247 L 128.25 246 L 127.75 244.75 L 127 243.75 L 127 243 L 126.75 242.75 L 126.75 241.25 L 128.5 238.75 L 129.25 238.75 L 130.5 239.75 L 130.75 239.75 L 132 241 L 132.75 242.75 L 132.75 244.5 L 133 244.75 L 133.5 244.75 L 135.75 242.25 L 135.75 242 L 136.75 241 L 136.75 240.75 L 137.5 240.25 L 138 240.75 L 138 241.75 L 138.75 243 L 138.75 244 L 139.75 245.75 L 140.75 245.75 L 141.25 244.75 L 142.5 243.5 L 143 243.5 L 144.25 245.25 L 144.75 246.5 L 146 247.5 L 146.25 247.25 L 146.75 247.25 L 147 246.75 L 149.75 244.25 L 150.25 244.25 L 150.75 244.75 L 150.75 245.5 L 151.25 246.5 L 151.25 247.5 L 151.75 248.25 L 152 249.5 L 152.75 251 L 153.25 251.5 L 153.5 251.5 L 154 251 L 154 250.5 L 154.5 250 L 154.5 249.75 L 155.5 248.75 L 156 247.75 L 157.25 246.5 L 157.75 247 L 157.75 247.75 L 158.75 250 L 158.75 251.25 L 159 251.5 L 159 252.5 L 159.5 253.5 L 159.5 254.5 L 159.75 254.75 L 159.75 255.25 L 160 255.75 L 160.75 255.75 L 162 253 L 162.75 252.25 L 163 251.25 L 164 250 L 164.25 249 L 165 248.5 L 165.5 248.75 L 166 250 L 166.75 250.75 L 167 251.75 L 169 255.25 L 169.75 255.25 L 171 253 L 171.75 252.25 L 172.25 251.25 L 173.25 250.25 L 174 248.75 L 175 248 L 175.5 248.5 L 175.5 249.75 L 175.75 250 L 175.75 250.75 L 176 251 L 176 252.5 L 176.5 253.25 L 176.5 254 L 177 255 L 177.75 255 L 178.25 254 L 178.25 253.5 L 178.75 253 L 179 252 L 181.5 248.75 L 181.75 248.75 L 182.5 249.5 L 183 250.5 L 183 251 L 183.75 252 L 183.75 252.5 L 184.25 253 L 184.75 253 L 185.5 252 L 186 251 L 186 250.5 L 186.75 249.5 L 187 248.5 L 188 247 L 188.25 246 L 189.25 244.75 L 189.5 244.75 L 190 245.25 L 190 245.5 L 190.75 246.25 L 191.75 248.25 L 192.25 248.75 L 192.5 248.75 L 193.75 247 L 194 245.75 L 194.5 245.25 L 194.5 244.75 L 195.25 243.25 L 196.25 242.25 L 197 243 L 197.25 244 L 197.5 244.25 L 197.75 248 L 198.25 248.5 L 198.5 248.5 L 199.25 247.5 L 199.25 247 L 200 245.25 L 200 244.5 L 200.75 242.75 L 201 240.75 L 201.75 239.5 L 202 238 L 203 235.75 L 203 234.75 L 203.5 234 L 204.5 235.25 L 204.5 236.25 L 204.75 236.5 L 204.75 237.75 L 205 238 L 205 239.5 L 205.25 239.75 L 205.25 240.5 L 205.5 240.75 L 205.5 241.75 L 206 242.5 L 206.5 242.5 L 207 241.5 L 207 240.75 L 207.75 239.5 L 208 237.75 L 208.75 236 L 208.75 235.25 L 209 235 L 209.25 233.5 L 210 232 L 210.25 230.25 L 211.5 228.5 L 212.75 229.25 L 213 232 L 213.25 232.25 L 213.75 232.25 L 214.5 231.5 L 214.75 231 L 214.75 230.25 L 216 228 L 216.25 226.5 L 217 225.25 L 217 224.5 L 217.75 223.5 L 218 222.25 L 218.75 221 L 219 219.5 L 221.25 216 L 221.25 169.5 L 221 169.25 L 221 168.5 L 220.75 168 L 219.75 167.25 L 218.75 167.25 L 217.25 168 L 214.75 170.75 L 214.75 171 L 213.5 172.25 L 213.5 172.5 L 211.5 174.5 L 211.25 174.5 L 209.25 173 L 207.5 173 L 206.5 173.5 L 205.5 174.5 L 204.75 174.75 L 204 175.5 L 203.25 175.75 L 201.25 177.5 L 200.25 178 L 199.75 178 L 198.75 177.5 L 198.25 177 L 197.5 177 L 197.25 176.75 L 195.25 176.75 L 193.25 177.75 L 192 178 L 191 178.75 L 189.75 179 L 189 179.5 L 186.5 180 L 186.25 180.25 L 186.25 182.25 L 186 182.5 L 186 186 L 185.5 186.5 L 184.75 185.5 L 184.75 184.5 L 184.25 183.5 L 184 182 L 182.75 181 L 182.25 181 L 182 180.75 L 181.75 181 L 176.25 181 L 176 181.25 L 173.25 181.25 L 172.25 182 L 172.25 182.75 L 172 183 L 171.75 190.25 L 171.25 190.75 L 170.5 190 L 170.5 189.5 L 170.25 189.25 L 170.25 188.25 L 170 188 L 170 186.75 L 169.25 185.25 L 169 183.75 L 168.75 183.5 L 168.75 182.75 L 168.25 181.75 L 167.75 181.5 L 166.5 181.5 L 166.25 181.75 L 158.25 181.75 L 158 181.5 L 157 181.5 L 156.75 181.25 L 156 181.25 L 155.75 181 L 154 181 L 153.75 180.75 L 152.75 180.75 L 151.5 180 L 150 179.75 L 149.5 179.25 L 148.5 179.25 L 148 179.75 L 148 182 L 147.75 182.25 L 147.75 183.5 L 147.5 183.75 L 147 183.75 L 146.25 183 L 146 182.25 L 144.75 181.25 L 144.75 181 L 143.25 179.5 L 143 178.75 L 141 176.75 L 140 176.75 L 138.75 177.75 L 137.75 178 L 136 176.5 L 135.75 176.5 L 132.5 173.25 L 132.25 173.25 L 130.75 171.75 L 130.5 171.75 L 130 171 L 129 170.75 L 128 171.5 L 127.25 171.5 L 125.25 168.75 L 124.25 166.75 L 123.75 164.75 L 123 163.75 L 123 162.75 L 123.5 162.25 L 123.75 162.25 L 124.75 163.5 L 125 163.5 L 126.25 164.75 L 126.5 164.75 L 128.5 166.5 L 129.25 166.75 L 130 167.5 L 131 168 L 132.25 168.25 L 136.25 170.25 L 136.75 170.25 L 137.25 170.75 L 137.75 170.75 L 138.75 171.25 L 140.75 173 L 142.25 173.75 L 143.75 173.75 L 145 173 L 145.75 172.25 L 146 170.75 L 146.5 169.75 L 146.5 169 L 147.25 168 L 147.75 168.5 L 147.75 172 L 148 172.25 L 148 174.5 L 148.5 175 L 149 175 L 150 175.75 L 150.75 175.75 L 151 176 L 152.25 176.25 L 153 176.75 L 153.75 176.75 L 154 177 L 156.25 177 L 157.25 176 L 157.5 175.5 L 157.5 174.75 L 158.25 174 L 158.5 174 L 160.75 175.75 L 163.25 177 L 165.25 177 L 167.5 175.25 L 168.25 173.25 L 169 172.5 L 169 172.25 L 169.75 171.5 L 170 171.5 L 170.5 172 L 170.5 173.5 L 170.75 173.75 L 170.75 174.75 L 171 175 L 171 176 L 171.25 176.5 L 172.25 177 L 173 177 L 173.25 176.75 L 177.5 176.75 L 177.75 176.5 L 182.5 176.25 L 183 175.25 L 183.25 171 L 183.75 170.25 L 184 170.25 L 184.5 170.75 L 184.75 171.75 L 185.25 172.75 L 185.75 173.25 L 186.25 175.5 L 187.25 176 L 188.25 175.75 L 189.25 175 L 190 175 L 192.25 173.75 L 192.75 173.75 L 194.25 173 L 195.5 172.75 L 199 171 L 199.75 171 L 200.75 170.5 L 201.75 170.5 L 202 170.75 L 205.75 170.75 L 206.25 170.5 L 207.75 169 L 208.75 167 L 209 165.5 L 209.5 165 L 211 165.25 L 211.25 165.5 L 214.5 165.5 L 215.5 165 L 216.5 165 L 217 164.75 L 217.75 164 L 218.75 163.5 L 219.75 162.5 L 219.75 162.25 L 220.75 161.25 L 221 160.75 L 221 159.75 L 221.25 159.5 L 221.25 129.75 L 221 129.5 L 221.25 129 L 221.25 105.5 L 221 105.25 L 221 65 L 220.75 64.75 L 220.75 63 L 220.5 62.75 L 220.5 62 L 220.25 61.75 L 220.25 60 Z M 377.5 59.5 L 376.75 59 L 346.25 59 L 346 59.25 L 345.5 59.25 L 345.25 59 L 340.75 59 L 340.25 59.5 L 340.25 60.25 L 340.75 60.75 L 341.5 61 L 342 61.75 L 342.75 62 L 343.5 62.75 L 345.25 63.5 L 345.75 64 L 349.25 65.75 L 351 66 L 352.75 67 L 353.5 67 L 354 67.25 L 354.5 67.75 L 354.5 68 L 353.25 70.25 L 352.25 71.25 L 351.25 73 L 350 74.25 L 350 74.5 L 346.5 77.5 L 344.25 78.75 L 343.75 78.75 L 342 79.5 L 340.25 79.5 L 338.5 78.75 L 336.75 77.25 L 336.5 76.5 L 336 76.25 L 335 74.25 L 334.25 73.5 L 333 71 L 332.75 69.5 L 332.5 69.25 L 332.25 67.75 L 332 67.5 L 332 66.5 L 331.75 66.25 L 331.75 65.5 L 331.5 65.25 L 331.5 64.25 L 331.25 64 L 331.25 61 L 331.5 60.75 L 331.5 60.25 L 331 59.25 L 330.5 59 L 317 59 L 316 59.75 L 315.75 64.5 L 315 65.75 L 314.75 67.25 L 313.75 68.75 L 313.75 69.5 L 312.75 70.75 L 311.75 72.5 L 309.25 75.25 L 308.5 75.5 L 307.5 76.5 L 306.75 76.75 L 305.75 77.75 L 304.75 78 L 303.25 78.75 L 302.5 78.75 L 300.75 79.5 L 300 79.5 L 299.75 79.75 L 298.5 79.75 L 298.25 80 L 294.25 80 L 294 79.75 L 292.75 79.75 L 292.5 79.5 L 292 79.5 L 289 78 L 287 75.75 L 286.75 74.75 L 286 73.25 L 286 70 L 286.25 69.75 L 286.25 69 L 286.5 68.75 L 286.75 67.5 L 287.25 66.5 L 288.75 64.75 L 289 64 L 290 63.25 L 290.25 62.5 L 291.25 61.5 L 291.25 61.25 L 292.5 60.25 L 292.5 59.25 L 292 59 L 263.25 59 L 262.75 59.5 L 263.5 60.5 L 264.5 60.75 L 265.75 61.75 L 266.5 62 L 267.5 63 L 267.75 63 L 268.75 64 L 269 64 L 272 67.25 L 272.75 68.75 L 273.25 69.25 L 273.25 69.75 L 273.5 70 L 273.5 72.5 L 273 73.25 L 272.75 74.5 L 272.25 75 L 271.75 76 L 271.25 76.25 L 269.75 78 L 268.75 78.5 L 268.25 78.5 L 267.25 79.25 L 266.75 79.25 L 265.75 79.75 L 261.25 79.75 L 260 79 L 259.25 79 L 257.25 78 L 256 76.75 L 255.25 76.5 L 253.75 75 L 253.25 75 L 252.75 75.5 L 252.75 83.75 L 253 84.25 L 253.5 84.75 L 254.5 85 L 255.25 85.75 L 256.25 86 L 257.25 87 L 258 87.25 L 258.75 88 L 259 88 L 260.5 89.5 L 261.5 89.5 L 262 88.5 L 262 87.75 L 262.5 87.5 L 263 88 L 263.25 88.75 L 264 89.75 L 266.25 90.75 L 268 90.75 L 268.25 91 L 268.75 91 L 269 90.75 L 269.75 90.75 L 270.5 90 L 270.75 89.5 L 270.75 88 L 271.25 87.5 L 271.5 87.5 L 272 88.25 L 272 89.75 L 272.5 90.75 L 273 91 L 278 91 L 278.5 90.75 L 279 90 L 279 86.25 L 279.5 85.75 L 280.75 88.25 L 280.75 89.25 L 282 91 L 283.25 91 L 283.5 91.25 L 288.75 91.25 L 289.75 90 L 289.75 86.25 L 290 86 L 290 85.5 L 290.5 85.25 L 291 86 L 291 86.75 L 291.5 87.75 L 291.75 89.5 L 292.25 90 L 293.25 90 L 293.5 89.75 L 296.75 89.75 L 297.5 89.25 L 299 89 L 300 88.5 L 300.75 87.75 L 300.75 87.5 L 302.25 86.25 L 305.75 86.25 L 306 86 L 306.75 86 L 307.5 85.25 L 307.75 85.25 L 309.75 83 L 310.25 82.75 L 311.25 82.75 L 311.5 83 L 313.25 83 L 315.25 82 L 316.25 81.75 L 318.25 80 L 321 78.25 L 322.5 76.75 L 323 76.5 L 323.5 76.5 L 323.75 76.75 L 323.75 77.25 L 323.5 77.75 L 322 79.25 L 321.5 80.25 L 320.75 81 L 320.5 81.75 L 318.75 83.75 L 318.25 84 L 316 84 L 315.5 84.25 L 311 88.5 L 310.5 88.5 L 310 88 L 310 87.5 L 309.5 87 L 309.25 87 L 308 88 L 307.75 88 L 307.5 88.5 L 304 91.75 L 302.75 92.25 L 301.25 91.25 L 300.75 91.25 L 300.5 91 L 299 91 L 295.5 92.75 L 293 95 L 292.5 95 L 291.75 96 L 291.25 96 L 289.5 94.25 L 289 94.25 L 288.75 94 L 287.75 94 L 287.5 93.75 L 287 93.75 L 286.75 94 L 285.5 94 L 285.25 94.25 L 284.5 94.25 L 283.5 94.75 L 282 95 L 281.5 95.5 L 281.5 96 L 281.25 96.25 L 281.25 99 L 281 99.25 L 280.5 99.25 L 279.75 98 L 279.5 96.75 L 279 96.25 L 278.75 95.5 L 277.75 94.75 L 277.25 94.75 L 276.5 94.25 L 274.5 94.25 L 274.25 94.5 L 273.25 94.75 L 272.75 95.25 L 272.5 96 L 272 96.5 L 271.5 96.5 L 270 95.25 L 266.25 93.5 L 264.75 92.25 L 264.25 92.25 L 263.75 93.25 L 264 96.5 L 263.5 97 L 263.25 97 L 262.75 96.5 L 262.25 95.25 L 261 94 L 258.75 90.5 L 257.5 89.25 L 257.25 89.25 L 256.75 89.75 L 256.25 92 L 255.75 92.5 L 255.5 92.5 L 254.75 91.5 L 254.75 91 L 254.25 90.25 L 254 89.25 L 253.5 88.75 L 252.75 89 L 252.5 89.5 L 252.5 91 L 252.75 91.25 L 252.75 91.75 L 252.5 92 L 252.5 93.25 L 252.75 93.5 L 252.5 93.75 L 252.5 108.25 L 252.75 108.5 L 252.75 109.25 L 253 109.75 L 253.25 109.75 L 254.25 110.75 L 254.75 110.75 L 255 111 L 255.5 111 L 257.25 111.75 L 258.75 113 L 259 113.75 L 259.75 114.75 L 259.75 115.25 L 260 115.5 L 260 116.75 L 260.25 117 L 260.75 118.75 L 262.25 119.75 L 264.75 119.75 L 265 119.5 L 265.75 119.5 L 266 119.25 L 267.5 119 L 269 118.25 L 270.25 118.25 L 270.5 118.5 L 271.25 118.5 L 272 119 L 273.25 119 L 274.25 119.5 L 274.75 120 L 274.75 120.75 L 274.25 121 L 273.75 121.5 L 273.5 122.25 L 271 124.5 L 270 125 L 269.5 125 L 269 125.5 L 268.5 125.5 L 267.5 126 L 265.5 126.25 L 265.25 126.5 L 261.75 126.5 L 261.5 126.25 L 258.75 125.75 L 257.5 125 L 257 125 L 256 124.5 L 255.5 124 L 254.5 123.75 L 253.5 122.5 L 253 122.75 L 252.75 123.25 L 252.75 176.5 L 253 177 L 253.5 177.25 L 255.5 175.25 L 255.75 175.25 L 257.5 173.25 L 258.5 172.75 L 258.75 172.25 L 258.75 171.5 L 256.75 169.75 L 256.5 169.75 L 255 168 L 255 167.5 L 255.5 166.5 L 255.5 165.25 L 255.75 165 L 256 160.5 L 256.5 160 L 257 159.75 L 257.25 160 L 258.5 160 L 260 160.75 L 261.5 160.75 L 261.75 161 L 265 161 L 266.25 160.25 L 266.75 160.25 L 267 160.5 L 267 161.25 L 266.25 162.25 L 266.25 163.25 L 266.5 163.5 L 268.25 163.5 L 277 155.5 L 277 155 L 276.25 154.5 L 275.5 154.5 L 275.25 154.25 L 273.25 154.25 L 273 154 L 272 154 L 271.75 153.75 L 268.75 153.75 L 268.5 153.5 L 267.75 153.5 L 267.25 153 L 267.25 152.25 L 268.25 151 L 268.5 150.25 L 270.5 148 L 272 145.5 L 272.75 144.75 L 273 144 L 273.75 143.25 L 274 142.25 L 275 141.5 L 275 141.25 L 276 140 L 276.25 140 L 276.75 140.5 L 276.75 142.5 L 277 142.75 L 277 146.5 L 277.25 146.75 L 277.25 148.5 L 277.5 148.75 L 277.5 150 L 277.75 150.25 L 277.75 153.5 L 278 154 L 278.5 154.25 L 280.25 152.25 L 280.5 152.25 L 281.75 151 L 282.5 150.75 L 285.75 147.25 L 285.75 147 L 286.75 145.75 L 287 145 L 288 143.75 L 288.25 142.75 L 288.75 142.25 L 289 141.5 L 289.5 141 L 290.25 139.5 L 290.5 139.5 L 291 140 L 291 141 L 291.5 141.5 L 292 141.5 L 293 140.75 L 293.25 140.25 L 293.25 139.5 L 293.5 139.25 L 293.5 138.75 L 293 137.75 L 293 136.25 L 293.5 135.75 L 295 135.75 L 295.25 135.5 L 296 135.5 L 296.25 135.25 L 298.5 135 L 300.5 134 L 301.5 133 L 302.75 132.25 L 303.25 131.75 L 303.25 131.5 L 308 127 L 308.25 127 L 309.25 125.75 L 309.5 125.75 L 315.25 120.25 L 315.5 120.25 L 319.75 116.25 L 320 116.25 L 324.5 111.75 L 324.75 111.75 L 329.5 107.25 L 329.75 107.25 L 331.25 105.75 L 331.5 105.75 L 332.25 104.75 L 332.5 104.75 L 334 103.25 L 334.25 103.25 L 335.5 102 L 335.5 101.75 L 337.75 99.75 L 338 98.75 L 337.5 97.75 L 337 97.25 L 336.75 96 L 336 95 L 335.75 93.5 L 335.5 93.25 L 335.5 91.5 L 335.25 91.25 L 335.25 89 L 335.5 88.75 L 335.75 88.75 L 337.25 90.25 L 337.75 91.25 L 339.5 93.25 L 339.75 94 L 341 95.75 L 341.75 95.75 L 343 95 L 346 92 L 346.25 92 L 347 91 L 347.25 91 L 351 87.5 L 351.25 87.5 L 352.75 85.75 L 352.75 85.5 L 358.5 79.75 L 359.5 79.25 L 362.25 76.75 L 364 75.75 L 366 74 L 366 73.5 L 366.25 73.25 L 366 73 L 366 72.25 L 365.5 71.75 L 365 70.5 L 364.25 69.75 L 363.75 68.5 L 363.25 68 L 363.25 67.5 L 364.25 67 L 365.75 66.75 L 366.75 66 L 367.75 66 L 368 65.75 L 368.5 65.75 L 369.5 65 L 370 65 L 372.5 63.75 L 373 63.25 L 375.5 62 L 376.75 60.75 L 377 60.75 L 377.5 60 Z M 217.75 131.5 L 218.25 132.5 L 218.5 134 L 218.75 134.25 L 218.75 138.75 L 218.5 139 L 218.5 140 L 218.25 140.25 L 218.25 141.5 L 218 141.75 L 217.75 143.5 L 217 144.75 L 216.75 146 L 214.75 149.75 L 214 150.5 L 213.75 151.5 L 212.75 152.5 L 212.75 152.75 L 209 156.25 L 208 156.75 L 207.25 157.5 L 206.5 157.75 L 205.5 158.75 L 204.25 159 L 201.25 160.5 L 198.5 161.25 L 197.75 161.75 L 196 161.75 L 195.75 162 L 194.5 162 L 194.25 162.25 L 190.75 162.25 L 190.5 162 L 189.25 161.75 L 188.75 161.25 L 187.75 160.75 L 187.25 160.75 L 186.25 160.25 L 185.75 159.75 L 183.75 159 L 183.25 158.5 L 182.25 158 L 180 156 L 178.25 152.75 L 178.25 152.25 L 178 152 L 178 150.75 L 177.75 150.5 L 178 146.75 L 178.25 146.5 L 178.75 144.5 L 179.5 143.5 L 180 142.25 L 181.75 140.25 L 182 139.5 L 185.75 135.5 L 186 135.5 L 189 133 L 189.75 132.75 L 190.25 132.25 L 191 132 L 191.75 131.25 L 192.75 130.75 L 193.5 130.75 L 194.75 130 L 196.75 129.5 L 198.25 128.75 L 199.25 128.75 L 200.75 128 L 206.25 127.75 L 206.5 127.5 L 208 127.5 L 208.25 127.25 L 209.75 127.25 L 210 127.5 L 211.25 127.5 L 211.5 127.75 L 212.25 127.75 L 212.5 128 L 213.5 128 L 215.5 129.25 Z M 126.25 134.25 L 128.75 133 L 130.75 133 L 131 132.75 L 134 132.5 L 134.25 132.25 L 135.5 132.25 L 135.75 132.5 L 138.75 132.5 L 139 132.75 L 140.5 132.75 L 140.75 133 L 142.75 133 L 143.5 133.5 L 145.75 134 L 146.75 134.75 L 147.75 135 L 150.25 136.25 L 152.5 138 L 152.75 138 L 156.5 141.5 L 156.5 141.75 L 157.5 142.75 L 158 143.75 L 158.75 144.5 L 159.75 146.5 L 159.75 147 L 160.5 148.75 L 160.5 149.5 L 160.75 149.75 L 160.75 151.75 L 160.5 152 L 160.5 152.5 L 160.25 152.75 L 160.25 153.25 L 160 153.5 L 160 154 L 159.25 155.75 L 158.5 156.5 L 158 157.5 L 155.75 159.5 L 154.5 159.75 L 153.5 160.5 L 153 160.5 L 152.75 160.75 L 151.75 160.75 L 151.5 161 L 145.75 161 L 145.5 160.75 L 144 160.75 L 143.75 160.5 L 142.25 160.25 L 140.25 159.25 L 138.5 158.75 L 137.75 158 L 137 157.75 L 135.5 156.5 L 134.75 156.25 L 131 152.5 L 131 152.25 L 130.25 151.5 L 130 150.75 L 129.25 150 L 128.5 148.25 L 128 147.75 L 127.5 145.75 L 127 145 L 127 144.25 L 126.75 144 L 126.75 143.25 L 126.25 142.25 L 126.25 141.5 L 126 141.25 L 126 134.75 Z M 136.75 98.75 L 137.25 98 L 137.5 98 L 138 98.5 L 138.75 100 L 139.75 101 L 141.25 103.5 L 142.5 104.75 L 142.5 105 L 143.5 106.25 L 143.75 107 L 145.75 109.25 L 146 110.25 L 146.5 110.75 L 147.25 110.75 L 147.75 110.25 L 148.25 109 L 148.75 108.5 L 150 106 L 150.75 105.25 L 151.25 105.25 L 152.75 107.25 L 153 108.25 L 153.75 109 L 154.75 111 L 155.5 111.75 L 156 113 L 158.25 116.25 L 158.5 116.25 L 159 115.75 L 159 115.25 L 159.5 114.25 L 160 113.75 L 160 113.25 L 161 111.25 L 161.5 110.75 L 161.5 110.5 L 162.25 110 L 163 110.5 L 163 110.75 L 164.5 112.25 L 165 113.25 L 166.75 115 L 167.25 116 L 170.25 119.25 L 171.5 119.25 L 171.75 119 L 171.75 118.75 L 176 114 L 176 113.75 L 177 112.75 L 177 112.5 L 178 111.75 L 178 111.5 L 179.5 109.75 L 180 109.75 L 180.75 110.5 L 180.75 111.5 L 181.5 112.75 L 181.5 113.25 L 183 116.25 L 183.75 116.25 L 184 115.5 L 185 114.25 L 185.25 113.5 L 186 112.75 L 186.25 112 L 186.75 111.5 L 187.25 110.25 L 189 108 L 189 107.5 L 189.5 107 L 190 106 L 191 105 L 191.25 105 L 191.75 105.5 L 191.75 106.25 L 194 110.75 L 194.25 111 L 194.75 111 L 196 109.5 L 196 109.25 L 197.25 108 L 198 106.75 L 199 105.75 L 199.75 104.5 L 200.75 103.5 L 201 102.75 L 202.25 101.5 L 202.5 100.75 L 203.25 100 L 203.5 100 L 204 100.75 L 203.75 101.25 L 203.75 102 L 204 102.5 L 203.75 102.75 L 203.75 105.5 L 203.5 105.75 L 203.5 106.25 L 203.25 106.5 L 203.25 107.5 L 202.75 108.5 L 202.75 110 L 202.25 110.75 L 202.25 111.5 L 201.75 112.25 L 201.75 112.75 L 200.75 114 L 199.75 116 L 198.75 117 L 198.75 117.25 L 197.25 118.5 L 196.25 118.75 L 194.75 119.5 L 194 119.5 L 193.75 119.75 L 192.5 120 L 191.25 120.75 L 189.5 121 L 188.75 121.5 L 187.5 121.75 L 185 123 L 184 123.75 L 182.5 124 L 182.25 124.25 L 181.5 124.25 L 181.25 124.5 L 179.5 124.5 L 177.75 123.75 L 176.75 123 L 175.25 123 L 173.25 124.25 L 172.75 124.25 L 171.75 124.75 L 169.5 125 L 169.25 124.75 L 168.25 124.75 L 168 124.5 L 167.25 124.5 L 167 124.25 L 165.5 124 L 165.25 123.75 L 157.5 123.75 L 157.25 123.5 L 156.5 123.5 L 154.75 122.75 L 153.25 122.5 L 152 121.75 L 150.75 121.5 L 150 121 L 149.5 121 L 148.25 120 L 147.5 119.75 L 145.5 118 L 145.25 118 L 143 115.75 L 143 115.5 L 142 114.75 L 142 114.5 L 140.5 112.5 L 139.75 110.75 L 139 110 L 138.75 108.5 L 138 107.25 L 138 106.5 L 137.75 106.25 L 137.75 104.75 L 137.5 104.5 L 137.5 103.5 L 137.25 103.25 L 137.25 102.25 L 137 102 L 137 99.25 Z M 215.75 198 L 216 198.5 L 216 204.25 L 215.75 204.5 L 215.75 208.25 L 215.5 208.5 L 215.5 209.25 L 215.25 209.5 L 215.25 210.25 L 215 210.5 L 215 211.5 L 214.75 211.75 L 214.5 213.5 L 214 214 L 213.75 215.5 L 213.25 216.25 L 212.75 218 L 212 218.75 L 210.75 221.25 L 207.5 224.75 L 207.25 224.75 L 205 226.75 L 204.5 226.75 L 204 227.25 L 201.5 228.75 L 201 228.75 L 200.75 229 L 200.25 229 L 198.5 229.75 L 197.5 229.75 L 197.25 230 L 195 230 L 194.75 230.25 L 191.25 230.25 L 191 230 L 187.25 229.75 L 185.5 229 L 184 228.75 L 180.75 227 L 179 225.5 L 177 222.25 L 176.75 220.75 L 176.5 220.5 L 176.5 219.75 L 176.25 219.5 L 176.25 218 L 176 217.75 L 176.25 217.5 L 176.25 216.25 L 176.5 216 L 176.75 213.75 L 178 212.25 L 178 211.75 L 178.5 211.25 L 179 211.25 L 181.5 210 L 183.75 210 L 184 209.75 L 187.25 209.75 L 187.75 210.25 L 188.25 211.25 L 188.25 211.75 L 188.75 212.5 L 189 214 L 189.5 214.5 L 189.75 215.75 L 191.75 217.75 L 192.25 217.75 L 193.75 218.5 L 196.5 218.5 L 196.75 218.25 L 198 218 L 200.5 216.75 L 201.5 215.75 L 201.5 215.5 L 202.5 214.25 L 202.5 213.75 L 202.75 213.5 L 202.75 210.25 L 202.5 210 L 202.5 209.25 L 202.25 209 L 202.25 208.25 L 202 208 L 202 207 L 201.25 205.5 L 200.75 203.25 L 201.5 202.5 L 203.25 202 L 203.5 201.75 L 204 201.75 L 205.5 200.75 L 206.5 200.75 L 206.75 200.5 L 208.75 200 L 210.75 199 L 212 198.75 L 213.25 198 L 214 198 L 214.75 197.5 Z M 218.5 12 L 218 12.5 L 218 13 L 217.75 13.25 L 218 13.5 L 218 14 L 218.5 14.5 L 219 14.5 L 219.5 15 L 220 16 L 220 39 L 219 40.25 L 218.5 40.25 L 218 40.75 L 217.75 41.25 L 218 42.25 L 218.5 42.75 L 219 42.75 L 219.25 43 L 231.5 43 L 233 41.75 L 233.25 41.75 L 234 42.75 L 234.5 42.75 L 234.75 43 L 247.25 43 L 247.75 42.75 L 248.25 42.25 L 248.25 41 L 247.75 40.25 L 247.5 40.25 L 246.25 39.25 L 246.25 38.75 L 245.5 37.25 L 245.5 36.75 L 245 36 L 244.75 34.75 L 244 33.5 L 243.75 32 L 243 30.75 L 242.75 29.5 L 242 28.25 L 241.75 27 L 241 25.75 L 240.75 24.25 L 240 23 L 240 22.25 L 239.5 21.5 L 240 20 L 241 19 L 241.25 18.25 L 243.25 16.25 L 244 16 L 245.25 15 L 246.25 14.75 L 246.75 14.25 L 247 13.75 L 246.75 12.5 L 245.75 11.75 L 236.75 11.75 L 235.75 12.25 L 235.75 12.75 L 235.5 13 L 235.75 14 L 237.25 14.75 L 238 15.5 L 238.25 16 L 238.25 17.25 L 238 17.5 L 237.75 18.5 L 236 20.75 L 235 22.5 L 234 23.5 L 233.75 24.25 L 233 25 L 231.75 27 L 231.75 29.25 L 232 29.5 L 232 30.75 L 232.25 31 L 233.25 34.5 L 233.75 35.25 L 234 36.5 L 234.5 37.25 L 234.5 37.75 L 235 38.75 L 235 39.25 L 233.25 41 L 232.75 41 L 231.5 40 L 231.25 40 L 230.25 38.75 L 230.25 19.75 L 230.5 19.5 L 230.5 19 L 230.25 18.75 L 230.25 17 L 230.5 16.75 L 230.5 15.5 L 231.25 14.75 L 232 14.5 L 232.5 14 L 232.75 13.5 L 232.75 12.75 L 232 12 L 231.5 12 L 231.25 11.75 L 219.5 11.75 L 219.25 12 Z M 156 274.75 L 156 275.25 L 155.75 275.5 L 155.75 278 L 155.5 278.25 L 155.5 279.5 L 155.25 279.75 L 155.25 280.75 L 155 281 L 155 282.75 L 154.75 283 L 154.75 285.25 L 154.5 285.5 L 154.25 288.25 L 154 288.5 L 154 289.5 L 153.75 289.75 L 153.75 290.75 L 153.5 291 L 153.5 291.5 L 153 292 L 152.75 293.25 L 152 294 L 151.75 294.75 L 150.75 295.75 L 150.75 296 L 147.75 298.75 L 147 299 L 146.5 299.5 L 145.5 300 L 145 300 L 143.75 300.75 L 143 300.75 L 141.25 301.75 L 140 301.75 L 139.75 302 L 139 302 L 138.75 302.25 L 138 302.25 L 137.75 302.5 L 136.5 302.5 L 136.25 302.75 L 129 302.75 L 128.75 302.5 L 128 302.5 L 127.25 302 L 126.5 302 L 126 301.75 L 123.25 299 L 122.75 298 L 122.75 297.5 L 122 296.5 L 122 296 L 121.75 295.75 L 121.75 294.5 L 121.5 294.25 L 121.25 292.75 L 121 292.5 L 121 290.25 L 121.75 288.5 L 123.5 286.75 L 125.5 285.75 L 128.25 285.75 L 128.5 285.5 L 129.25 285.5 L 129.5 285.25 L 130.25 285.25 L 130.5 285 L 131.5 285 L 131.75 284.75 L 132.5 284.75 L 132.75 284.5 L 135.5 283.75 L 136 283.25 L 137 283 L 138.25 282 L 139.5 281.5 L 141 280.25 L 141.75 280 L 142.5 279.25 L 143.25 279.25 L 144.5 278.25 L 145.75 277.75 L 146.25 277.25 L 148 276.75 L 149 276 L 150.75 275.75 L 151.5 275.25 L 152.25 275.25 L 153 274.75 L 154 274.75 L 154.75 274.25 L 155.5 274.25 Z M 125 206.25 L 126.5 205 L 127.5 205 L 127.75 204.75 L 128.5 204.75 L 128.75 204.5 L 136.5 204.5 L 137 205 L 137 207.75 L 136.75 208 L 136.75 214 L 137 214.25 L 137 215.75 L 138 217.75 L 139.75 219.25 L 140.5 219.25 L 140.75 219.5 L 144.25 219.5 L 144.5 219.25 L 146.5 218.75 L 147.5 218 L 148.25 218 L 149.5 217.25 L 150.75 217 L 151.25 216.5 L 152.25 216 L 153.5 214.25 L 154 214.25 L 158.75 219.75 L 158.75 220.5 L 158.5 221 L 157 222.5 L 156.75 222.5 L 156.5 223.25 L 156 223.75 L 155.25 224 L 154 225.25 L 153 225.75 L 152 226.75 L 150.25 227.75 L 149.5 228.5 L 148.5 228.75 L 148 229.25 L 147 229.75 L 146.5 229.75 L 145.5 230.5 L 143.25 231 L 142 231.75 L 140.75 231.75 L 139 229.5 L 137.75 226.75 L 137.25 226.25 L 136.75 225.25 L 136 225.25 L 136 225.5 L 135 226.75 L 134.75 227.75 L 133.75 228.75 L 133.75 229.25 L 132.75 230.25 L 132.5 230.25 L 132.25 230 L 132.25 228.5 L 132 228.25 L 132 227.75 L 132.25 227.5 L 132.25 222.75 L 132 222.5 L 132 222 L 131.25 221.75 L 130 223.25 L 129.75 224 L 128.75 225 L 128.25 225 L 128 224.75 L 128 223.5 L 127.75 223.25 L 127.75 222.25 L 127.25 221.25 L 127 218.5 L 126.75 218.25 L 126.75 217.5 L 126 215.75 L 125.75 213.5 L 125 211.75 L 125 209.75 L 124.75 209.5 L 124.75 207 L 125 206.75 Z M 14.75 128.5 L 15.25 127.75 L 16.25 127.75 L 16.75 128.25 L 17.75 128.75 L 18.25 128.75 L 20.25 130 L 20.75 130 L 22.25 130.75 L 23.5 131 L 24 131.5 L 26.5 132.75 L 27 132.75 L 28 133.25 L 29 134.5 L 29 135.5 L 29.25 135.75 L 29.25 136.25 L 29.5 136.5 L 29.5 137.5 L 29.75 137.75 L 29.75 139 L 30.5 140.5 L 30.5 141 L 32 142.75 L 32 143 L 32.5 143.25 L 33 143.25 L 33.25 143.5 L 34.25 143.5 L 34.5 143.75 L 35.75 143.75 L 36 143.5 L 36.75 143.5 L 37 143.25 L 39 142.75 L 40 142 L 41 142 L 41.25 141.75 L 45.75 141.75 L 46 142 L 47.5 142 L 49 143 L 49.75 143 L 50.25 143.25 L 50.75 143.75 L 50.75 144.75 L 50 145.5 L 48.75 147.5 L 45.25 150.75 L 44.75 150.75 L 43 151.75 L 42.25 151.75 L 40 152.75 L 38.5 152.75 L 38.25 153 L 32.75 153 L 32.5 152.75 L 30.75 152.75 L 30.5 152.5 L 29.75 152.5 L 29 152 L 27 151.75 L 25 150.75 L 24.5 150.75 L 23.25 149.75 L 22.25 149.25 L 20 147 L 20 146.75 L 18 144.5 L 17.75 143.75 L 17 142.75 L 17 142.25 L 16.5 141.5 L 16.5 141 L 15.75 139.25 L 15.75 138.5 L 15 137.25 L 15 136.5 L 14.75 136.25 L 14.75 133.5 L 14.5 133.25 L 14.5 130 L 14.75 129.75 Z M 99.75 128.25 L 99.75 132 L 99.5 132.25 L 99.5 134.25 L 99.25 134.5 L 99.25 135.25 L 99 135.5 L 99 136.5 L 98.75 136.75 L 98.5 138.75 L 98 139.5 L 98 140 L 97.75 140.25 L 97.75 141.25 L 97 142.5 L 96.75 143.75 L 95.75 144.75 L 95.75 145.25 L 93.25 148.25 L 92.5 148.5 L 91.75 149.5 L 91 149.75 L 89.25 151 L 88.75 151 L 87.25 151.75 L 86.25 151.75 L 86 152 L 85.5 152 L 83.75 152.75 L 82.75 152.75 L 82.5 153 L 77 153 L 76.75 152.75 L 75.5 152.75 L 75.25 152.5 L 74.5 152.5 L 73.75 152 L 73.25 152 L 71.75 151.25 L 71.25 151.25 L 71 151 L 69.25 150.5 L 68.5 149.75 L 66.5 148.5 L 63.25 145.5 L 63.5 144.5 L 65.25 143 L 67.25 141.75 L 68.5 141.75 L 68.75 141.5 L 71 141.5 L 71.25 141.75 L 72.25 141.75 L 73.25 142.25 L 73.75 142.75 L 77.5 144.5 L 80.25 144.5 L 80.5 144.25 L 81 144.25 L 82 143.75 L 83.5 142 L 83.75 141 L 84 140.75 L 84 139.25 L 84.25 139 L 84.25 138.25 L 84.75 137.5 L 85 136 L 85.75 135.25 L 86 134.5 L 86.75 133.75 L 87 133.75 L 87 133.5 L 87.75 132.75 L 89.25 132 L 90.25 131 L 91.75 130.75 L 93 130 L 94.5 129.75 L 95.5 129 L 96 129 L 97 128.5 L 97.5 128 L 99.25 127.5 Z M 349.75 12 L 349 13.5 L 350.25 14.75 L 351 15 L 352.5 16.75 L 354.25 20.25 L 356.5 23.5 L 357.25 25.25 L 358.25 26.5 L 359 28.25 L 359.5 28.75 L 360 30 L 361.25 31.75 L 363 35.25 L 363.75 36 L 365 38.75 L 366.75 41.25 L 367 42.25 L 368 43 L 373.25 43 L 373.75 42.75 L 374 42.25 L 374 33.25 L 373.75 33 L 373.75 32 L 373 31 L 372.75 30.25 L 372 29.5 L 371.75 28.5 L 371 27.75 L 369.75 25 L 369 24.25 L 368.75 23.25 L 368 22.5 L 366.75 19.75 L 366 19 L 364 15 L 363 13.75 L 362.5 12.25 L 361.5 11.75 L 350.25 11.75 Z M 186.25 12 L 185.75 12.75 L 186 13 L 185.75 15 L 186 15.25 L 186 16.5 L 186.25 16.75 L 186.25 17.5 L 186.5 17.75 L 186.5 18.5 L 186.75 18.75 L 186.75 20 L 187 20.25 L 187 21 L 187.25 21.25 L 187.25 22.25 L 187.5 22.5 L 187.5 23.25 L 187.75 23.5 L 187.75 24.25 L 188 24.5 L 188 25.5 L 188.75 27 L 188.75 28.75 L 189 29 L 189 30 L 189.25 30.25 L 189.25 32 L 188.75 32.5 L 187.75 32.5 L 187.5 32.25 L 185.5 32.25 L 185 32.5 L 184.25 33.5 L 184.25 34.5 L 184.75 35.25 L 189.75 35.25 L 190.5 35.75 L 190.75 36.25 L 190.75 37.5 L 191 37.75 L 191 39.5 L 189.5 40.75 L 189.5 42 L 189.75 42.5 L 190.5 43 L 203 43 L 203.5 42.75 L 204 42 L 204 41.25 L 203.75 40.75 L 202.25 39.5 L 202 39 L 202 38.25 L 201.25 36.75 L 201 34.75 L 200.75 34.5 L 200.75 33.25 L 200.5 33 L 200.5 32.25 L 200.25 32 L 200.25 31.25 L 200 31 L 199.75 28.5 L 199 26.75 L 198.75 24.75 L 198 23 L 197.75 20 L 197 18.25 L 197 17 L 196.75 16.75 L 196.75 16 L 196 14.5 L 196 13.75 L 195.75 13.5 L 195.75 12.25 L 195 11.75 L 187 11.75 L 186.75 12 Z M 83.25 11.75 L 82 12.75 L 82 13.75 L 82.75 14.5 L 83 14.5 L 84.25 16 L 84.25 39 L 83.75 39.75 L 82.75 40.25 L 82 41 L 82 42 L 82.5 42.75 L 83 42.75 L 83.25 43 L 95.75 43 L 96.25 42.75 L 97 41.75 L 97 41 L 96.5 40.5 L 95.75 40.25 L 94.75 39.25 L 94.75 15.75 L 95.5 14.75 L 96.25 14.5 L 96.75 14 L 97 13.5 L 97 12.75 L 96.75 12.25 L 96.25 12 L 95.5 12 L 95.25 11.75 Z M 263.5 11.75 L 262.75 12.5 L 262.5 13.5 L 263.5 14.75 L 264 14.75 L 264.75 15.5 L 264.75 39.5 L 263.25 40.25 L 262.75 40.75 L 262.5 41.75 L 262.75 42.25 L 263.75 43 L 276.25 43 L 276.5 42.75 L 277 42.75 L 277.75 42.25 L 278 41.75 L 278 40.75 L 277.25 40.25 L 276.75 40.25 L 275.25 39 L 275.25 12.5 L 275 12 L 274.5 11.75 Z M 52.75 11.75 L 51.75 12.5 L 51.75 13.75 L 52 14.25 L 52.25 14.25 L 52.75 14.75 L 53.25 14.75 L 54 15.75 L 54 37.5 L 53.75 37.75 L 54 39.25 L 53.25 40 L 52.75 40 L 52 40.5 L 51.75 41 L 51.75 42.25 L 52.25 42.75 L 52.75 42.75 L 53 43 L 65.25 43 L 66.25 42.5 L 66.5 42 L 66.5 41 L 66.25 40.5 L 65.25 40 L 64.25 38.75 L 64.25 16 L 64.5 15.5 L 66.25 14 L 66.5 13.5 L 66.5 12.75 L 66 12 L 65.5 12 L 65.25 11.75 Z M 20.5 11.75 L 19.75 12.25 L 19.75 28.75 L 19.5 29 L 19.5 29.5 L 19.75 29.75 L 19.75 38.5 L 19.5 38.75 L 19.5 39.25 L 18.75 40 L 18 40 L 17 40.75 L 17 42 L 17.75 42.75 L 18.25 42.75 L 18.5 43 L 31.75 43 L 32.75 42.25 L 33 41.25 L 32.25 40.25 L 30.5 39.75 L 30 39 L 30.25 38.75 L 30.25 37.75 L 30 37.5 L 30 28.5 L 30.25 28.25 L 30 28 L 30 20.5 L 30.25 20.25 L 30 19.75 L 30 14.75 L 30.25 14.5 L 30.25 12.75 L 30 12.25 L 29.25 11.75 Z M 306.5 12 L 306 12.5 L 306 14 L 307.25 14.75 L 308.25 16 L 308.25 36 L 308.5 36.25 L 308.5 37.75 L 309 38.75 L 310.5 40.5 L 310.75 40.5 L 311.75 41.5 L 312.75 41.75 L 314.25 42.75 L 314.75 42.75 L 315 43 L 316 43 L 317 43.5 L 319.25 43.5 L 319.5 43.75 L 320.75 43.5 L 321.25 42.5 L 321.25 41 L 320.25 39.75 L 319.25 39.25 L 319 38.75 L 319 38 L 318.75 37.75 L 318.75 15.75 L 319.5 14.75 L 320.25 14.5 L 320.75 14 L 320.75 12.5 L 319.75 11.75 L 307.25 11.75 L 307 12 Z M 145.5 11.75 L 145 12.25 L 145 38.75 L 144.5 39.75 L 144 40 L 143.25 40 L 142.25 41 L 142.25 41.75 L 142.5 42.25 L 143.5 43 L 156.5 43 L 156.75 42.75 L 157.25 42.75 L 157.75 42.25 L 158 41.25 L 157.25 40.25 L 156.25 40 L 155.25 39.25 L 155.25 38 L 155 37.75 L 155 13.25 L 155.25 12.75 L 154.5 11.75 Z M 277.25 11.75 L 276.5 12.25 L 276.5 14.25 L 277 14.75 L 277.75 15 L 278.5 15.75 L 279 16.75 L 279 24.75 L 278.75 25 L 278.75 25.5 L 277.75 26.5 L 276.75 27 L 276.5 27.5 L 276.5 28.5 L 276.75 29 L 278.75 30.75 L 278.75 31.25 L 279 31.5 L 279 38.25 L 279.5 39 L 279.75 40.5 L 280 41 L 280.5 41.25 L 281.75 42.75 L 282.75 43 L 283.25 43.5 L 286.75 43.75 L 287 43.5 L 287.75 43.5 L 288 43.25 L 289.25 43 L 289.75 42.75 L 292.25 40.25 L 292.25 39.75 L 292.5 39.5 L 292.5 38.5 L 292.25 38.25 L 292.25 37.75 L 291.75 37.25 L 291 37.25 L 290.25 37.75 L 289.5 37.75 L 289.25 37.5 L 289.25 31.75 L 289 31.5 L 289 31 L 287.25 29.25 L 284.25 27.75 L 284.25 27.25 L 285 26.75 L 285.75 26.75 L 288 24.75 L 289 22.75 L 289 22 L 289.25 21.75 L 289.25 21 L 289.5 20.75 L 289.5 19.25 L 289.25 19 L 289 17 L 287.75 15 L 287.5 15 L 286.75 14 L 286.5 14 L 285.25 13 L 284.75 13 L 283.25 12.25 L 281.25 12 L 281 11.75 Z M 166 282 L 166.5 281.5 L 168.5 280.5 L 171.25 280.5 L 171.5 280.25 L 172 280.25 L 172.25 280.5 L 174.5 280.5 L 175 280.25 L 176 281 L 176 283.75 L 175.75 284 L 175.75 289.25 L 176.75 291 L 177.5 291.75 L 179 292.5 L 180 292.5 L 180.25 292.75 L 180.5 292.5 L 182 292.5 L 182.25 292.25 L 184.25 292 L 186.75 290.75 L 189 289 L 190.25 288.5 L 191.75 290 L 192.5 291.25 L 193.5 292.25 L 193.75 292.75 L 193.75 294 L 193.25 294.5 L 193 294.5 L 191.75 296 L 191.5 296 L 187.25 299.5 L 186 300 L 185 300.75 L 184 301 L 183 301.75 L 182.5 301.75 L 181.5 302.25 L 180.75 302.25 L 180 302.75 L 179.25 302.75 L 178.25 301.5 L 178 300.75 L 177 299.75 L 176.5 298.5 L 175.75 297.75 L 175 297.75 L 174.75 298.5 L 173.25 300.5 L 173.25 301 L 172.5 301.75 L 172.25 301.75 L 172 301.5 L 172 295.25 L 171.5 294.75 L 171.25 294.75 L 170.5 295.5 L 170 296.75 L 169.5 297.25 L 168.75 296.5 L 168.75 295.75 L 168.25 295 L 168.25 294.25 L 168 294 L 168 292.5 L 167.75 292.25 L 167.75 291.5 L 167.25 290.5 L 167 288.25 L 166.75 288 L 166.75 287.5 L 166 285.75 L 166 283.75 L 165.75 283.5 Z M 100.5 12 L 100 12.25 L 100 12.75 L 99.75 13 L 100 13.25 L 100 14 L 100.5 14.5 L 101.5 14.75 L 102.5 15.75 L 102.75 16.25 L 102.75 17.25 L 101.75 19 L 100.5 20.25 L 99.5 22.25 L 97 25.25 L 97 25.75 L 96 27.25 L 96 29.5 L 96.5 30.25 L 97 33 L 97.5 33.75 L 98 36 L 98.75 37.25 L 98.75 38 L 99.25 38.75 L 99.25 39.25 L 97.75 40.75 L 97.75 42 L 98 42.5 L 98.75 43 L 111.5 43 L 112.25 42.5 L 112.5 42 L 112.5 41 L 110.5 39 L 110.5 38.5 L 110 38 L 109.75 36.75 L 109 35.5 L 108.75 34.25 L 108.25 33.5 L 107.75 31.25 L 107 30.25 L 106.75 28.75 L 106 27.5 L 105.75 26 L 105 24.75 L 104.75 23.5 L 104.25 23 L 104 22 L 103.75 21.75 L 103.75 20.75 L 104 20.25 L 104.5 19.75 L 104.75 19.75 L 106 17.75 L 107.25 16.5 L 108.25 16 L 109 15.25 L 111 14.5 L 111.25 14 L 111.25 12.75 L 110 11.75 L 101.25 11.75 L 101 12 Z M 135.75 315.25 L 136.5 316 L 136.75 317.5 L 137.75 319.25 L 137.75 320.5 L 138 321 L 140 323.5 L 140 324 L 140.25 324.25 L 140.25 325.75 L 140 326 L 139.75 327 L 137.75 328.75 L 137.5 328.75 L 136.25 329.75 L 135.25 330 L 134.75 330.5 L 134 330.75 L 133.25 331.5 L 132.25 332 L 131.5 332 L 131 331.75 L 130.25 330.75 L 130.25 328.25 L 133.5 325.25 L 134.5 324.75 L 135.75 323.5 L 135.75 323.25 L 135.25 322.75 L 134.5 322.75 L 134.25 323 L 132.75 323 L 132.5 323.25 L 131.75 323.25 L 131.5 323.5 L 130.75 323.5 L 130.5 323.75 L 127.5 323.75 L 126.5 324.25 L 126 325.25 L 126 327.25 L 128 328.25 L 128.75 329 L 128.75 330 L 128 331 L 127.75 332.25 L 127 333.5 L 127 334 L 126.5 335 L 125.25 336 L 121.5 336 L 118.25 337.75 L 117 337.75 L 116.75 338 L 115.75 338 L 115.25 337.75 L 114.75 337.25 L 114.25 336.25 L 114.25 335.25 L 114.75 334.25 L 115.25 333.75 L 115.5 333 L 117.5 331 L 118.25 330.75 L 119 330 L 119.5 330 L 121.25 329 L 121.75 329 L 123 327.75 L 123 327.25 L 122.75 327 L 121.75 327 L 121 326.25 L 121 325.75 L 120.75 325.5 L 120.75 320.5 L 121 320.25 L 121 318.5 L 121.5 318 L 122.5 318 L 122.75 318.25 L 124 318.25 L 124.25 318.5 L 125.25 318.75 L 125.75 318.5 L 128.25 315.75 L 129.5 315.75 L 132 317 L 133.25 317 L 133.75 316.75 L 135.25 315.25 Z M 127.5 370.25 L 127.75 370.25 L 128.25 370.75 L 128.25 371.5 L 128.5 371.75 L 128.5 372.25 L 128.75 372.5 L 128.75 373.5 L 129 373.75 L 129 375 L 129.5 375.5 L 131 375.25 L 133 373.75 L 133.75 373.75 L 134.25 374.25 L 134.75 375.25 L 135 377.25 L 135.75 378.5 L 135.75 379.5 L 136.75 381.5 L 137 383.25 L 137.5 384 L 137.75 386.5 L 136.75 388.25 L 134.5 389.75 L 128.75 389.75 L 128.5 389.5 L 125.75 389.5 L 125 389 L 124.25 389 L 123.25 388.5 L 122.5 387.75 L 122 386.75 L 121.75 382 L 122 381.75 L 122 380.25 L 122.25 380 L 122.25 379.25 L 122.75 378.5 L 122.75 378 L 123.25 377 L 123.75 376.5 L 124.25 375.25 L 124.75 374.75 L 125 373.75 L 125.5 373.25 L 126.25 371.75 Z M 164.5 225.5 L 164.75 225.5 L 165.25 226 L 165.5 227 L 165.75 227.25 L 165.75 228.25 L 166.5 229.75 L 167.25 230.25 L 167.75 230 L 168 229 L 170.5 225.75 L 171.5 226.75 L 171.75 227.25 L 171.75 228 L 172.75 229.75 L 172.75 230.75 L 173.5 232 L 174 234 L 174.75 235 L 174.75 235.75 L 175 236 L 175 236.5 L 175.75 238.25 L 175.75 238.75 L 175 240.25 L 174.25 241 L 174.25 241.25 L 173.25 242 L 172.5 242 L 172.25 242.25 L 170 242.25 L 169.75 242.5 L 166.75 242.5 L 166.5 242.75 L 164.5 242.75 L 164.25 242.5 L 163 242.5 L 162.75 242.25 L 161 241.75 L 159.25 240 L 159 239 L 158.75 238.75 L 158.75 235.25 L 159 235 L 159 234 L 159.25 233.75 L 159.5 232.5 L 161 229.5 L 162 228.5 L 162 228.25 L 163 227.25 L 163 227 Z M 308.75 109.25 L 308.75 110.25 L 309 110.5 L 308.75 114.25 L 308.5 114.5 L 308.5 115.25 L 307.75 116.75 L 307.75 117.75 L 307 118.75 L 306.75 119.75 L 305.75 120.75 L 304.75 122.5 L 304.25 123 L 304 123 L 303.25 124 L 299.75 125.75 L 299 125.75 L 298.75 126 L 298 126 L 297.75 126.25 L 296.75 126.25 L 296.5 126.5 L 294 126.5 L 293.75 126.25 L 292.75 126.25 L 292.5 126 L 290.5 125.75 L 286.5 123.75 L 283.5 121 L 283.5 120.5 L 285.25 119 L 286.75 118.75 L 287.75 118.25 L 289 118.25 L 289.25 118.5 L 289.75 118.5 L 290.5 119 L 291 119 L 291.5 119.5 L 293 120.25 L 293.75 120.25 L 294 120.5 L 295.25 120.5 L 296.75 119.75 L 297.5 119 L 297.75 118.5 L 297.75 117 L 298 116.75 L 298.25 115.25 L 300.75 112 L 301.5 111.75 L 302.5 111 L 303.5 110.75 L 304.5 110 L 306 109.75 L 307.5 108.75 L 308.25 108.75 Z M 198.75 297.75 L 199.25 297.75 L 199.5 298 L 199.5 298.5 L 199.75 298.75 L 199.75 299.75 L 200 300 L 200 301 L 200.5 301.5 L 201.75 300.75 L 202 300 L 202.75 299.25 L 203 298.25 L 203.5 297.75 L 203.75 297.75 L 204.5 298.5 L 205 300.5 L 205.5 301.25 L 205.5 301.75 L 206 302.75 L 206 303.25 L 206.75 304.5 L 207 305.75 L 207.75 307 L 207.75 309.25 L 206.5 310.75 L 205.5 311 L 205.25 311.25 L 202.75 311.25 L 202.5 311.5 L 197.25 311.5 L 196.5 311 L 195.5 310.75 L 194.5 309.75 L 194.25 309.25 L 194.25 308.5 L 194 308.25 L 194 305 L 194.25 304.75 L 194.25 304.25 L 194.75 303.5 L 195 302.25 L 195.75 301.5 L 196 300.75 Z M 333.25 11.75 L 325.75 11.75 L 325.25 12 L 324.75 12.75 L 324.75 13.5 L 325 14 L 325.5 14.5 L 326.25 14.75 L 327.25 15.75 L 327.75 16.75 L 328 18 L 328.25 18.25 L 328.25 19.75 L 328 20 L 328 20.75 L 328.25 21 L 328.25 34.25 L 328 34.5 L 328 35.5 L 327.75 35.75 L 327.5 37.25 L 326.75 38 L 326.75 38.25 L 325 39.75 L 324.25 39.75 L 324 40 L 323.25 40 L 322.75 40.75 L 322.75 42.75 L 323.25 43.5 L 324 43.5 L 324.75 43 L 325.5 43 L 326.75 42.25 L 327.5 41.5 L 328.5 41 L 328.5 40.75 L 329.75 39.5 L 330 38.25 L 330.75 37 L 330.75 35.5 L 331 35.25 L 331 34.5 L 330.75 34.25 L 330.75 33.25 L 331 33 L 331 19.75 L 330.75 19.5 L 330.75 18.75 L 331 18.5 L 331 17.5 L 331.75 16.5 L 332 15.75 L 334.25 13.75 L 334.25 12.5 Z M 28.25 67.75 L 27.75 68 L 26.75 69 L 26.75 69.25 L 24 71.75 L 23.25 74 L 24.5 76.5 L 27.25 79.5 L 27.5 80.25 L 28.5 81.25 L 29.25 81.25 L 29.75 80.75 L 30.25 79.75 L 30.75 79.25 L 31 79.25 L 31.5 78.25 L 33.25 76.25 L 34 75 L 34 74.25 L 34.25 73.75 L 34 73.5 L 33.75 72 L 33.25 71.5 L 33.25 71.25 L 29.75 68 L 29.25 67.75 Z M 184.5 18.25 L 184 18.75 L 183.75 21.5 L 183.5 21.75 L 183.5 22.5 L 183 23.25 L 182.75 25.25 L 181.75 27.25 L 181.75 28.25 L 181.5 28.5 L 181.5 29.25 L 181 30 L 180.75 32.5 L 180 34 L 179.75 35.75 L 179.25 36.5 L 179.25 37 L 178.5 38.5 L 177.25 39.75 L 176.5 40 L 175.5 41 L 175.5 42 L 175.75 42.5 L 176.5 43 L 183.5 43 L 183.75 42.75 L 184.25 42.75 L 184.75 42.25 L 184.75 41 L 184 40.25 L 183 39.75 L 182 38.75 L 182 36.75 L 182.75 35.25 L 183 33.5 L 183.75 32.25 L 183.75 31.5 L 184 31.25 L 184 30 L 184.75 28.25 L 184.75 26.75 L 185 26.5 L 185 25.75 L 185.75 24.75 L 185.75 24.25 L 186 24 L 186 21.5 L 185.75 21.25 L 185.75 20.25 L 185.5 20 L 185.5 19.5 Z M 85 59 L 83 60.25 L 82 61.5 L 82 62.25 L 81.75 62.5 L 81.75 64.75 L 82.75 66 L 83.25 67 L 84.75 68.75 L 84.75 69 L 86 70.25 L 86 70.5 L 86.75 71 L 87.5 71 L 89.5 68.5 L 89.75 67.75 L 90.5 67 L 91.25 65.5 L 92 64.75 L 92 62.25 L 90.5 60.25 L 89.75 60 L 88.75 59.25 L 88.25 59.25 L 88 59 Z M 352.5 20.5 L 352.25 20.75 L 352.25 37.25 L 351.5 39 L 349.25 40.75 L 349 41.75 L 349.75 42.75 L 350.25 42.75 L 350.5 43 L 357.25 43 L 358.25 42.25 L 358.25 40.75 L 357.5 40 L 357.25 40 L 355 37.5 L 355 27 L 354.75 26.75 L 354.75 26.25 L 355 26 L 355 23.75 L 354 21.75 Z M 170.75 86 L 171.25 86 L 171.75 86.5 L 172.25 87.75 L 172.75 88.25 L 172.75 88.75 L 173.75 90.75 L 174.5 91.5 L 174.75 92.5 L 175.75 93.75 L 175.75 94.5 L 176.5 95.5 L 176.75 96.5 L 176.25 97 L 175.75 97 L 175.5 96.75 L 164.5 96.75 L 164.25 96.5 L 164.25 96 L 165.25 95 L 165.25 94.5 L 166 93 L 167 92 L 168.25 89.5 Z M 288.5 136 L 288.75 136.25 L 288.75 136.75 L 288 137.75 L 287.75 138.5 L 287 139.25 L 286.75 140.25 L 286.25 140.75 L 285.75 141.75 L 285.75 142.25 L 285 143 L 284.5 144.25 L 284 144.75 L 283.75 145.75 L 282.75 147.25 L 282.75 147.75 L 282 148.5 L 281.5 149.75 L 281 150.25 L 280.5 150.25 L 280 149.25 L 280 145.25 L 279.75 145 L 279.75 140 L 279.5 139.75 L 279.5 137.25 L 280 136.75 L 280.5 136.75 L 280.75 136.5 L 282.75 136.5 L 283 136.25 L 285 136.25 L 285.25 136 Z M 369 11.75 L 368 12.5 L 368 13.75 L 368.75 14.5 L 369 14.5 L 370.75 16.25 L 371 16.75 L 371 17.75 L 371.25 18 L 371.25 24.75 L 373 28.5 L 373.5 28.75 L 373.75 28.5 L 373.75 27.75 L 374 27.5 L 374 17.25 L 375.25 15.75 L 375.25 15.5 L 377 14.25 L 377.25 13.75 L 377.25 12.5 L 376.25 11.75 Z M 274.25 136.25 L 274.75 136.75 L 274.75 137 L 274 137.75 L 273.75 138.5 L 273.25 139 L 272.75 140 L 271 142 L 270.75 142.75 L 270 143.5 L 269.75 144.25 L 268.75 145.25 L 267.75 147 L 266.5 148.5 L 266 148 L 266 147.5 L 266.25 147.25 L 266.25 136.25 L 267 135.75 L 267.5 136 L 272.75 136 L 273 136.25 Z M 262 139.25 L 262.25 139.25 L 262.75 140 L 262.75 140.75 L 262.5 141 L 262.5 141.75 L 262.75 142 L 262.75 143 L 262.5 143.25 L 262.5 143.75 L 262.75 144 L 262.75 146.5 L 262.5 146.75 L 262.75 147.25 L 262.75 148.75 L 262.5 149 L 262.75 149.5 L 262.75 150.5 L 262.25 151 L 261.5 151 L 260.25 150 L 259 149.5 L 258.25 148.75 L 257.75 148.75 L 256.75 148 L 256 147.75 L 254.5 146.5 L 254.5 146 Z M 32.25 11.75 L 31.75 12.25 L 31.75 14.75 L 33.75 17.25 L 33.75 17.75 L 34.5 19 L 34.5 19.75 L 34.75 20 L 34.75 21.5 L 35.25 22.5 L 35.75 22.75 L 37 22.75 L 37.5 22.5 L 38 21.75 L 38 12.25 L 37.25 11.75 Z M 157.5 11.75 L 156.75 12.25 L 156.75 14.75 L 158.5 16.5 L 159 17.5 L 159 18 L 159.75 19.75 L 159.75 21.5 L 160 22 L 160.75 22.75 L 162.25 22.75 L 163 22 L 163 12.25 L 162.5 11.75 Z M 17.5 11.75 L 12.75 11.75 L 12 12.25 L 12 21.75 L 12.25 22.25 L 13 22.75 L 14 22.75 L 14.5 22.25 L 14.75 22.25 L 15 21.75 L 15 20.5 L 15.75 19 L 16 17.75 L 16.75 16.25 L 18 15 L 18 14.5 L 18.25 14.25 L 18.25 12.25 Z M 143.25 12 L 142.75 12 L 142.5 11.75 L 138 11.75 L 137.5 12 L 137.25 12.5 L 137.25 21.75 L 137.5 22.25 L 138.25 22.75 L 139.25 22.75 L 139.75 22.5 L 140.25 21.75 L 140.5 20.25 L 140.75 20 L 140.75 18.5 L 141 18.25 L 141 17.75 L 141.75 16.5 L 143.25 15 L 143.25 14.5 L 143.5 14.25 L 143.5 12.5 Z M 116.25 319.25 L 118.25 320.5 L 120 323 L 120 325 L 119.75 325.25 L 119.5 326.5 L 118.25 327.75 L 117.5 328 L 116.25 329 L 115.25 329 L 114.5 329.5 L 114 329 L 113.75 328.5 L 113.75 327.75 L 113.5 327.5 L 113.5 324.75 L 113.75 324.5 L 113.75 322.75 L 114 322.5 L 114 321.5 L 114.75 320 L 115.25 319.5 Z M 113.75 413.25 L 113 413.25 L 112.5 414.5 L 111.25 416 L 110.75 416.25 L 109.5 415 L 109 415.25 L 108.75 415.75 L 108.75 423 L 109.25 423.75 L 109.5 423.75 L 112.5 421 L 112.75 421 L 113.25 420.5 L 113.25 420.25 L 115 418.75 L 116 418.25 L 116.5 417.25 L 116.25 416.25 Z M 258.5 67 L 256.75 68.5 L 255.75 70.75 L 255.75 72.25 L 256.25 73.25 L 258.25 75.25 L 259.5 75.75 L 260 75.5 L 262 73.25 L 263 71 L 263 70 L 262.75 69.5 L 260 67 Z M 299.75 59.5 L 298.5 60.5 L 298.25 60.5 L 297 61.75 L 296.25 63.25 L 296.25 64 L 297.25 66 L 298 66.75 L 298 67 L 300 68.75 L 300.75 68.5 L 300.75 68.25 L 302 67 L 302.25 66.25 L 303 65.5 L 303.5 63.5 L 303.25 63.25 L 303.25 62.25 L 300.25 59.5 Z M 117.5 397 L 118 397 L 118.75 397.5 L 119.75 397.5 L 120.25 398 L 120.25 399.25 L 119.75 400.25 L 119.5 402.75 L 119 403.75 L 118.75 407 L 118.5 407.5 L 117.75 408 L 116.5 407.75 L 115 406 L 115.25 404.25 L 115.75 403.25 L 116 400.75 L 116.5 400 L 116.5 399.25 L 116.75 399 L 116.75 397.5 Z M 261.5 135.5 L 260.5 136.75 L 259.75 137 L 256 140.5 L 255.75 140.5 L 254.5 141.5 L 254.25 141.25 L 254.25 139.75 L 254.5 139.5 L 254.5 137.25 L 254.75 137 L 254.75 135.75 L 255.25 135.25 L 256.75 135.25 L 257 135 L 257.5 135 L 257.75 135.25 L 258.75 135.25 L 259.25 135 L 259.5 135.25 L 261.25 135.25 Z M 205.75 327.5 L 205 327.5 L 204 329.5 L 204 330 L 203.25 331.25 L 203.25 331.75 L 202.75 332.75 L 202.75 333.25 L 203.25 333.75 L 203.5 333.75 L 205.25 332 L 205.75 331 L 205.75 330.25 L 206 330 L 206 328.25 L 205.75 328 Z" fill="#1a1a1a" fill-rule="evenodd" clip-rule="evenodd"/>
</svg>
